<svg xmlns="http://www.w3.org/2000/svg" xmlns:xlink="http://www.w3.org/1999/xlink" version="1.1" x="0px" y="0px" viewBox="0 0 468.004 468.004" style="enable-background:new 0 0 468.004 468.004;" xml:space="preserve"><defs><linearGradient x1="49.999999999999986%" y1="0%" x2="50.000000000000014%" y2="100%" gradientUnits="userSpaceOnUse" id="color74409880"><stop offset="0%" stop-color="rgba(70,204,121,1)"/><stop offset="100%" stop-color="rgba(152,94,212,1)"/></linearGradient><linearGradient x1="49.999999999999986%" y1="0%" x2="50.000000000000014%" y2="100%" gradientUnits="userSpaceOnUse" id="color20844129"><stop offset="0%" stop-color="rgba(70,204,121,1)"/><stop offset="100%" stop-color="rgba(152,94,212,1)"/></linearGradient><linearGradient x1="49.999999999999986%" y1="0%" x2="50.000000000000014%" y2="100%" gradientUnits="userSpaceOnUse" id="color95625752"><stop offset="0%" stop-color="rgba(70,204,121,1)"/><stop offset="100%" stop-color="rgba(152,94,212,1)"/></linearGradient><linearGradient x1="49.999999999999986%" y1="0%" x2="50.000000000000014%" y2="100%" gradientUnits="userSpaceOnUse" id="color65553307"><stop offset="0%" stop-color="rgba(70,204,121,1)"/><stop offset="100%" stop-color="rgba(152,94,212,1)"/></linearGradient><linearGradient x1="49.999999999999986%" y1="0%" x2="50.000000000000014%" y2="100%" gradientUnits="userSpaceOnUse" id="color72081327"><stop offset="0%" stop-color="rgba(70,204,121,1)"/><stop offset="100%" stop-color="rgba(152,94,212,1)"/></linearGradient><linearGradient x1="49.999999999999986%" y1="0%" x2="50.000000000000014%" y2="100%" gradientUnits="userSpaceOnUse" id="color3616547"><stop offset="0%" stop-color="rgba(70,204,121,1)"/><stop offset="100%" stop-color="rgba(152,94,212,1)"/></linearGradient><linearGradient x1="49.999999999999986%" y1="0%" x2="50.000000000000014%" y2="100%" gradientUnits="userSpaceOnUse" id="color56525394"><stop offset="0%" stop-color="rgba(70,204,121,1)"/><stop offset="100%" stop-color="rgba(152,94,212,1)"/></linearGradient><linearGradient x1="49.999999999999986%" y1="0%" x2="50.000000000000014%" y2="100%" gradientUnits="userSpaceOnUse" id="color30461685"><stop offset="0%" stop-color="rgba(70,204,121,1)"/><stop offset="100%" stop-color="rgba(152,94,212,1)"/></linearGradient><linearGradient x1="49.999999999999986%" y1="0%" x2="50.000000000000014%" y2="100%" gradientUnits="userSpaceOnUse" id="color19975657"><stop offset="0%" stop-color="rgba(70,204,121,1)"/><stop offset="100%" stop-color="rgba(152,94,212,1)"/></linearGradient><linearGradient x1="49.999999999999986%" y1="0%" x2="50.000000000000014%" y2="100%" gradientUnits="userSpaceOnUse" id="color59728787"><stop offset="0%" stop-color="rgba(70,204,121,1)"/><stop offset="100%" stop-color="rgba(152,94,212,1)"/></linearGradient></defs><g><path d="M0,93.928h61.709V30.907c0-17.041-13.842-30.905-30.855-30.905S0,13.866,0,30.907V93.928z" fill="url('#color74409880')"/><g><g><path d="M51.503,337.704v43.497c0,3.745,3.042,6.791,6.782,6.791h205.057c-9.105-17.953-15.456-37.143-18.673-57.079H58.284     C54.545,330.913,51.503,333.959,51.503,337.704z M237.871,352.515c4.3,0,7.785,3.497,7.785,7.812     c0,4.314-3.486,7.812-7.785,7.812s-7.785-3.497-7.785-7.812C230.085,356.012,233.571,352.515,237.871,352.515z M189.97,352.515     c4.3,0,7.785,3.497,7.785,7.812c0,4.314-3.486,7.812-7.785,7.812c-4.3,0-7.785-3.497-7.785-7.812     C182.185,356.012,185.67,352.515,189.97,352.515z M142.069,352.515c4.3,0,7.785,3.497,7.785,7.812     c0,4.314-3.486,7.812-7.785,7.812c-4.3,0-7.785-3.497-7.785-7.812C134.284,356.012,137.769,352.515,142.069,352.515z      M94.168,352.515c4.3,0,7.785,3.497,7.785,7.812c0,4.314-3.486,7.812-7.785,7.812s-7.785-3.497-7.785-7.812     C86.383,356.012,89.869,352.515,94.168,352.515z" fill="url('#color20844129')"/><path d="M269.09,398.456H58.284c-9.5,0-17.228-7.74-17.228-17.255v-43.497c0-9.515,7.728-17.255,17.228-17.255h184.998     c-0.745-6.899-1.145-13.842-1.145-20.799v-33.975h-63.239c-7.634,0-14.842-2.948-20.295-8.302l-34.689-34.061     c-3.488-3.425-8.099-5.311-12.982-5.311H22.764c-10.229,0-18.55,8.34-18.55,18.591v198.936c0,10.251,8.321,18.591,18.55,18.591     h295.56C298.551,438.925,281.773,419.97,269.09,398.456z" fill="url('#color95625752')"/></g><path d="M279.364,0.002H58.282c8.507,7.583,13.874,18.628,13.874,30.905v176.63h38.777c7.634,0,14.842,2.948,20.295,8.302    l34.689,34.061c3.488,3.425,8.099,5.311,12.982,5.311h68.45l60.228-21.297V28.111C307.576,12.612,294.92,0.002,279.364,0.002z     M119.158,44.349h142.379c2.884,0,5.223,2.343,5.223,5.232s-2.339,5.232-5.223,5.232H119.158c-2.884,0-5.223-2.343-5.223-5.232    S116.273,44.349,119.158,44.349z M119.158,91.245h142.379c2.884,0,5.223,2.343,5.223,5.232s-2.339,5.232-5.223,5.232H119.158    c-2.884,0-5.223-2.343-5.223-5.232S116.273,91.245,119.158,91.245z M261.686,194.86H119.158c-2.884,0-5.223-2.343-5.223-5.232    s2.339-5.232,5.223-5.232h142.528c2.885,0,5.223,2.343,5.223,5.232S264.57,194.86,261.686,194.86z M261.686,148.604H119.158    c-2.884,0-5.223-2.343-5.223-5.232s2.339-5.232,5.223-5.232h142.528c2.885,0,5.223,2.343,5.223,5.232    S264.57,148.604,261.686,148.604z" fill="url('#color65553307')"/><g><path d="M318.022,161.993v68.228l40.53-14.332c1.125-0.397,2.353-0.397,3.478,0l28.14,9.951v-45.255     c0-10.251-8.321-18.592-18.55-18.592H318.022z" fill="url('#color72081327')"/><path d="M34.773,207.537h26.936v-45.544h-8.386c-10.229,0-18.55,8.34-18.55,18.592V207.537z" fill="url('#color3616547')"/></g><g><ellipse cx="360.292" cy="355.379" rx="5.931" ry="5.919" fill="url('#color56525394')"/><path d="M388.332,290.466c0-8.654-7.029-15.695-15.67-15.695h-24.741c-8.64,0-15.67,7.041-15.67,15.695v29.752h56.08V290.466z" fill="url('#color30461685')"/><path d="M360.292,226.371l-107.708,38.086v35.193c-0.457,72.346,43.085,137.146,107.708,168.352     C424.916,436.798,468.457,371.993,468,299.65v-35.193L360.292,226.371z M414.604,393.875c0,8.654-7.029,15.695-15.67,15.695     h-77.286c-8.64,0-15.67-7.041-15.67-15.695v-57.962c0-8.654,7.029-15.695,15.67-15.695h0.157v-29.752     c0-14.424,11.716-26.159,26.116-26.159h24.741c14.401,0,26.116,11.735,26.116,26.159v29.752h0.157     c8.64,0,15.67,7.041,15.67,15.695V393.875z" fill="url('#color19975657')"/><path d="M398.935,330.681h-77.286c-2.88,0-5.223,2.347-5.223,5.232v57.962c0,2.885,2.343,5.232,5.223,5.232h77.286     c2.88,0,5.223-2.347,5.223-5.232v-57.962C404.158,333.028,401.815,330.681,398.935,330.681z M365.515,370.892v16.381     c0,2.889-2.339,5.232-5.223,5.232c-2.884,0-5.223-2.343-5.223-5.232v-16.381c-6.474-2.188-11.154-8.308-11.154-15.513     c0-9.033,7.347-16.383,16.378-16.383c9.031,0,16.378,7.349,16.378,16.383C376.67,362.584,371.989,368.705,365.515,370.892z" fill="url('#color59728787')"/></g></g></g></svg>